<?xml version="1.0" encoding="utf-8"?>
<!-- Generator: Adobe Illustrator 24.1.3, SVG Export Plug-In . SVG Version: 6.00 Build 0)  -->
<svg version="1.1" id="Layer_1" xmlns="http://www.w3.org/2000/svg" xmlns:xlink="http://www.w3.org/1999/xlink" x="0px" y="0px"
	 viewBox="0 0 485 485" style="enable-background:new 0 0 485 485;" xml:space="preserve">
<style type="text/css">
	.st0{fill:#FFFFFF;}
</style>
<g>
	<path class="st0" d="M120.9,400c81.1,0,162.2,0,243.3,0c1.4,0,2.8-0.1,4.2-0.3c17.8-2.1,31.7-17.7,31.7-35.6
		c0-81.1,0-162.2,0-243.3c0-1,0.1-2.1-0.1-3.1C397.9,99,382.4,85,363.5,85c-80.6,0-161.3,0-241.9,0.1c-2.2,0-4.4,0.1-6.6,0.5
		C97.2,89,85,103.8,85,122v120.6c0,40.1,0,80.2,0,120.3c0,2,0.2,4.1,0.4,6.1C87.8,386.4,103.3,400,120.9,400z M303.1,133.5
		c0.1-6.9,5.4-12.1,12.4-12.1c12,0,23.9,0,35.8,0c7.1,0.1,12.3,5.3,12.3,12.4c0.1,11.9,0.1,23.9,0,35.8c0,7.2-5.3,12.4-12.4,12.4
		h-17.9c-6,0-12,0-18,0c-6.9,0-12.3-5.2-12.3-12.1C303.1,157.7,303.1,145.6,303.1,133.5z M242.5,181.9c33.5,0,60.6,27,60.6,60.5
		c0,33.5-27,60.6-60.5,60.6c-33.5,0-60.7-27.1-60.6-60.7C182,209.1,209.1,181.9,242.5,181.9z M121.4,219.8v-1.4h27.3
		c-6.1,24.7-3.3,48.3,8.8,70.6c8.8,16.3,21.5,29,37.6,38.1c31.9,18,71.6,16.3,102-4.5c16.8-11.5,28.9-26.9,36.2-46
		c7.2-19.1,8.1-38.5,3.1-58.3h27.4c0,0.5,0,1,0,1.6v130.5c0,8.2-5,13.2-13.1,13.2H148.7c-4.9,0-9.7,0.1-14.5,0
		c-7.6,0-12.8-5.2-12.8-12.8C121.4,307.2,121.4,263.5,121.4,219.8z"/>
</g>
</svg>
