<?xml version="1.0" encoding="iso-8859-1"?>
<!-- Generator: Adobe Illustrator 16.0.0, SVG Export Plug-In . SVG Version: 6.00 Build 0)  -->
<!DOCTYPE svg PUBLIC "-//W3C//DTD SVG 1.1//EN" "http://www.w3.org/Graphics/SVG/1.1/DTD/svg11.dtd">
<svg version="1.1" id="Capa_1" xmlns="http://www.w3.org/2000/svg" xmlns:xlink="http://www.w3.org/1999/xlink" x="0px" y="0px"
	 width="297.735px" height="297.735px" viewBox="0 0 297.735 297.735" style="enable-background:new 0 0 297.735 297.735;"
	 xml:space="preserve">
<g>
	<g>
		<path d="M154.988,161.606c0.244-0.049,0.476-0.122,0.7-0.231c0.231-0.116,0.427-0.28,0.609-0.475
			c0.262-0.292,0.353-0.603,0.273-0.926c-0.072-0.329-0.268-0.585-0.584-0.773c-0.365-0.231-0.762-0.359-1.221-0.359
			c-0.457-0.012-0.874,0.036-1.261,0.146v2.691c0.25,0,0.499,0,0.749,0C154.504,161.68,154.748,161.655,154.988,161.606z"/>
		<path d="M131.408,161.606c0.244-0.049,0.475-0.122,0.697-0.231c0.231-0.116,0.432-0.28,0.612-0.475
			c0.262-0.292,0.356-0.603,0.274-0.926c-0.076-0.329-0.274-0.585-0.584-0.773c-0.362-0.231-0.761-0.359-1.224-0.359
			c-0.454-0.012-0.874,0.036-1.261,0.146v2.691c0.25,0,0.5,0,0.749,0C130.915,161.68,131.165,161.655,131.408,161.606z"/>
		<path d="M132.903,164.858c-0.25-0.158-0.49-0.28-0.722-0.365c-0.237-0.086-0.475-0.135-0.712-0.171
			c-0.234-0.024-0.484-0.036-0.734-0.013c-0.25,0.013-0.518,0.025-0.807,0.037v3.312c0.308,0,0.63-0.012,0.974-0.037
			c0.344-0.023,0.673-0.078,0.993-0.17c0.316-0.086,0.609-0.207,0.889-0.378c0.277-0.158,0.5-0.39,0.664-0.682
			c0.042-0.329,0.036-0.608-0.021-0.853C133.36,165.296,133.192,165.065,132.903,164.858z"/>
		<path d="M156.358,167.068c0.274-0.164,0.499-0.384,0.664-0.676c0.042-0.329,0.036-0.621-0.019-0.853
			c-0.061-0.244-0.226-0.475-0.518-0.682c-0.25-0.158-0.493-0.28-0.725-0.365c-0.237-0.086-0.475-0.135-0.709-0.171
			c-0.244-0.024-0.487-0.036-0.737-0.013c-0.249,0.013-0.518,0.025-0.804,0.037v3.312c0.305,0,0.631-0.012,0.975-0.037
			c0.341-0.023,0.673-0.078,0.989-0.17C155.786,167.366,156.085,167.245,156.358,167.068z"/>
		<path d="M162.46,185.634c0.401-0.268,0.67-0.596,0.828-0.992c0.146-0.396,0.207-0.81,0.164-1.218
			c-0.042-0.408-0.183-0.81-0.414-1.188c-0.237-0.371-0.535-0.676-0.913-0.896c-0.578-0.225-1.169-0.298-1.766-0.2
			c-0.604,0.097-1.182,0.28-1.748,0.536v4.506c0.646,0.115,1.31,0.134,1.985,0.085C161.272,186.2,161.899,185.987,162.46,185.634z"
			/>
		<path d="M144.54,163.396c-0.262-0.621-0.536-1.229-0.834-1.851c-0.295-0.609-0.63-1.193-1.004-1.742
			c-0.274,0.609-0.536,1.206-0.78,1.809c-0.243,0.604-0.462,1.206-0.667,1.833c0.648-0.019,1.215-0.024,1.702-0.024
			C143.443,163.421,143.979,163.409,144.54,163.396z"/>
		<path d="M132.55,182.249c-0.274,0.603-0.53,1.205-0.773,1.802c-0.243,0.603-0.462,1.206-0.673,1.827
			c0.649-0.012,1.215-0.012,1.702-0.012c0.49,0,1.014-0.013,1.577-0.025c-0.262-0.627-0.536-1.242-0.837-1.851
			C133.253,183.375,132.924,182.797,132.55,182.249z"/>
		<path d="M170.474,183.308c-0.329,0.549-0.573,1.151-0.737,1.803c-0.14,0.523-0.213,1.084-0.231,1.662
			c-0.012,0.579,0.073,1.139,0.269,1.663c0.146,0.377,0.371,0.73,0.663,1.047c0.299,0.317,0.634,0.572,1.005,0.743
			c0.378,0.177,0.773,0.28,1.193,0.305c0.414,0.023,0.834-0.062,1.255-0.244c0.407-0.17,0.772-0.414,1.083-0.706
			c0.311-0.305,0.579-0.621,0.816-0.98s0.433-0.743,0.591-1.151c0.158-0.407,0.298-0.815,0.426-1.229
			c0.079-0.523,0.122-1.06,0.128-1.607c0.006-0.561-0.104-1.084-0.341-1.571c-0.194-0.414-0.487-0.779-0.877-1.071
			c-0.396-0.292-0.822-0.499-1.291-0.621s-0.943-0.134-1.419-0.073c-0.475,0.066-0.895,0.256-1.272,0.561
			C171.21,182.272,170.79,182.761,170.474,183.308z"/>
		<path d="M189.715,181.969c-0.396-0.305-0.828-0.512-1.291-0.628c-0.469-0.115-0.943-0.14-1.419-0.072
			c-0.475,0.066-0.895,0.256-1.272,0.561c-0.523,0.432-0.943,0.932-1.272,1.467c-0.322,0.548-0.566,1.157-0.73,1.814
			c-0.141,0.523-0.213,1.072-0.231,1.656c-0.013,0.585,0.073,1.133,0.268,1.656c0.146,0.384,0.372,0.743,0.664,1.06
			c0.292,0.317,0.633,0.561,1.005,0.743c0.377,0.17,0.773,0.28,1.193,0.292c0.414,0.024,0.834-0.049,1.254-0.231
			c0.408-0.176,0.773-0.42,1.084-0.712c0.311-0.299,0.579-0.628,0.816-0.98c0.237-0.365,0.432-0.743,0.591-1.157
			c0.158-0.402,0.298-0.816,0.426-1.224c0.079-0.524,0.122-1.06,0.128-1.614c0.006-0.548-0.104-1.071-0.341-1.57
			C190.396,182.614,190.104,182.261,189.715,181.969z"/>
		<path d="M174.931,63.008V31.177C174.931,13.957,163.124,0,148.567,0c-14.559,0-26.369,13.957-26.369,31.177v32.145
			c-14.261,7.45-29.562,22.627-32.735,53.591c-4.235,41.284-2.712,109.897-1.309,149.671c0.612,17.209,14.571,31.152,30.927,31.152
			h29.618h0.344c0,0,13.259,0,29.615,0s30.317-13.943,30.927-31.152c1.4-39.773,2.923-108.387-1.31-149.671
			C205.054,85.507,189.355,70.349,174.931,63.008z M175.563,179.106c0.39,0.128,0.749,0.293,1.072,0.475
			c0.335,0.171,0.651,0.402,0.956,0.677c0.396,0.358,0.736,0.772,1.011,1.235c0.273,0.463,0.48,0.963,0.597,1.462
			c0.152,0.651,0.225,1.291,0.207,1.924c-0.013,0.64-0.067,1.267-0.165,1.906c-0.237,0.773-0.535,1.528-0.895,2.265
			c-0.372,0.737-0.81,1.395-1.334,1.967c-0.523,0.585-1.139,1.048-1.826,1.413c-0.7,0.359-1.492,0.536-2.394,0.536
			c-0.578-0.024-1.041-0.086-1.376-0.146c-0.335-0.085-0.664-0.195-0.98-0.347c-0.566-0.165-1.047-0.433-1.455-0.798
			s-0.749-0.785-1.023-1.272c-0.273-0.481-0.486-0.993-0.633-1.534c-0.14-0.549-0.231-1.072-0.28-1.584
			c-0.066-0.895,0.006-1.809,0.231-2.734c0.22-0.919,0.572-1.777,1.054-2.545c0.487-0.779,1.096-1.449,1.82-2.01
			c0.73-0.554,1.559-0.925,2.503-1.107c0.487-0.086,0.974-0.109,1.468-0.086C174.607,178.839,175.095,178.942,175.563,179.106z
			 M166.966,168.792v0.146c-0.043,0.341-0.171,0.628-0.384,0.841c-0.213,0.219-0.456,0.365-0.725,0.414
			c-0.273,0.061-0.529,0.024-0.779-0.104c-0.243-0.128-0.426-0.371-0.536-0.725c-0.072-0.231-0.121-0.487-0.14-0.762
			c-0.019-0.279-0.024-0.548-0.019-0.815c0.007-0.274,0.013-0.53,0.03-0.779c0.013-0.244,0.019-0.444,0.019-0.628
			c0-0.389-0.006-0.791-0.012-1.169c-0.007-0.39-0.007-0.779-0.007-1.181c-0.669-0.646-1.29-1.328-1.851-2.047
			c-0.554-0.725-1.054-1.497-1.498-2.325c-0.134-0.256-0.268-0.524-0.39-0.816c-0.128-0.304-0.195-0.597-0.207-0.883
			c-0.067-0.262-0.036-0.499,0.079-0.712c0.128-0.22,0.292-0.378,0.512-0.5c0.213-0.109,0.45-0.164,0.7-0.158
			c0.256,0.006,0.487,0.092,0.694,0.256c0.152,0.134,0.273,0.268,0.371,0.426c0.104,0.171,0.183,0.354,0.25,0.536
			c0.066,0.183,0.134,0.372,0.194,0.561c0.062,0.194,0.141,0.378,0.237,0.548c0.286,0.523,0.609,0.998,0.956,1.449
			c0.354,0.451,0.725,0.901,1.133,1.34c0.354-0.487,0.743-0.932,1.157-1.352c0.42-0.427,0.791-0.883,1.139-1.364
			c0.066-0.11,0.17-0.28,0.311-0.506c0.134-0.226,0.28-0.456,0.433-0.712c0.151-0.244,0.316-0.475,0.475-0.694
			c0.164-0.207,0.316-0.354,0.438-0.414c0.219-0.134,0.444-0.194,0.67-0.183c0.225,0.012,0.432,0.085,0.621,0.207
			c0.188,0.109,0.328,0.292,0.444,0.499c0.109,0.214,0.146,0.444,0.122,0.694c-0.031,0.262-0.146,0.578-0.359,0.95
			c-0.22,0.371-0.463,0.743-0.749,1.139c-0.286,0.384-0.566,0.749-0.853,1.096c-0.292,0.347-0.518,0.627-0.683,0.822
			c-0.14,0.171-0.273,0.329-0.407,0.487c-0.128,0.158-0.262,0.316-0.396,0.469c-0.183,0.201-0.353,0.408-0.518,0.615
			c-0.164,0.207-0.328,0.414-0.499,0.621c0,0.791,0,1.57,0,2.362C166.941,167.221,166.947,168.006,166.966,168.792z
			 M158.636,191.133c0.013,0.164,0.019,0.335,0.013,0.493c-0.007,0.17-0.024,0.329-0.062,0.487c-0.036,0.152-0.104,0.304-0.2,0.438
			c-0.165,0.279-0.378,0.444-0.64,0.512c-0.262,0.061-0.512,0.049-0.755-0.043c-0.244-0.092-0.451-0.244-0.628-0.457
			c-0.17-0.207-0.262-0.463-0.262-0.768v-3.727c-0.262-0.133-0.456-0.311-0.578-0.518c-0.122-0.2-0.183-0.42-0.164-0.639
			c0.012-0.207,0.085-0.408,0.207-0.609c0.128-0.183,0.292-0.347,0.511-0.475v-5.291l0.024-0.116
			c0.043-0.152,0.11-0.305,0.207-0.444c0.098-0.141,0.214-0.274,0.341-0.384c0.135-0.116,0.274-0.194,0.438-0.243
			c0.165-0.049,0.317-0.037,0.487,0.012c0.512-0.207,1.029-0.377,1.559-0.512c0.53-0.14,1.06-0.219,1.59-0.243
			c0.529-0.024,1.054,0.024,1.571,0.146c0.518,0.122,1.017,0.342,1.497,0.646c0.378,0.243,0.725,0.56,1.023,0.925
			c0.292,0.378,0.536,0.768,0.736,1.182c0.329,0.743,0.476,1.485,0.451,2.229c-0.024,0.73-0.195,1.419-0.518,2.046
			c-0.316,0.646-0.762,1.193-1.327,1.681c-0.573,0.487-1.249,0.834-2.01,1.06c-0.585,0.158-1.175,0.244-1.772,0.231
			c-0.603-0.013-1.187-0.049-1.766-0.116v2.004C158.617,190.81,158.624,190.962,158.636,191.133z M138.347,189.8
			c0.106,0.499,0.195,1.01,0.262,1.521v0.141c-0.036,0.298-0.143,0.566-0.311,0.773c-0.161,0.213-0.356,0.365-0.566,0.438
			c-0.219,0.086-0.445,0.098-0.682,0.037c-0.244-0.061-0.466-0.226-0.673-0.487c-0.18-0.22-0.28-0.463-0.298-0.73
			c-0.018-0.269-0.064-0.536-0.119-0.798c-0.137-0.749-0.338-1.528-0.6-2.338c-0.853,0.018-1.702,0.03-2.542,0.03
			c-0.843,0-1.678,0-2.521,0.012c-0.125,0.366-0.229,0.725-0.316,1.097c-0.095,0.377-0.174,0.742-0.256,1.096
			c-0.07,0.28-0.131,0.566-0.189,0.865c-0.055,0.298-0.179,0.554-0.371,0.772c-0.238,0.274-0.487,0.433-0.755,0.47
			c-0.268,0.029-0.511-0.013-0.725-0.135c-0.21-0.128-0.387-0.316-0.518-0.572s-0.173-0.548-0.137-0.877
			c0.045-0.426,0.125-0.853,0.25-1.26c0.125-0.408,0.244-0.835,0.35-1.242c0.624-2.369,1.416-4.665,2.399-6.887
			c0.082-0.189,0.17-0.378,0.262-0.561c0.088-0.171,0.176-0.359,0.262-0.536c0.094-0.194,0.195-0.401,0.289-0.621
			c0.091-0.22,0.21-0.427,0.341-0.608c0.131-0.189,0.28-0.354,0.462-0.476c0.18-0.134,0.399-0.194,0.661-0.194
			c0.341,0,0.636,0.109,0.864,0.328c0.938,0.938,1.711,1.991,2.314,3.179c0.606,1.175,1.154,2.375,1.635,3.604
			c0.286-0.012,0.572-0.012,0.846,0c0.274,0.013,0.524,0.135,0.743,0.372c0.195,0.188,0.305,0.407,0.344,0.627
			c0.03,0.213,0.018,0.427-0.064,0.634c-0.079,0.219-0.198,0.389-0.375,0.548c-0.173,0.146-0.387,0.255-0.627,0.311
			C138.125,188.807,138.24,189.3,138.347,189.8z M135.674,164.249c0.274,0.572,0.387,1.169,0.341,1.766
			c-0.049,0.609-0.244,1.193-0.579,1.76c-0.338,0.566-0.797,1.054-1.373,1.468c-0.341,0.243-0.746,0.438-1.208,0.561
			c-0.463,0.134-0.935,0.231-1.428,0.286c-0.487,0.055-0.972,0.085-1.453,0.085c-0.487,0-0.922-0.019-1.321-0.042l-0.143-0.025
			c-0.594-0.072-0.956-0.262-1.087-0.584c-0.131-0.329-0.131-0.682-0.006-1.072v-8.391c-0.226,0-0.417-0.061-0.591-0.17
			c-0.17-0.116-0.308-0.269-0.414-0.445c-0.104-0.176-0.155-0.371-0.155-0.59c0-0.22,0.064-0.408,0.188-0.598
			c0.274-0.401,0.63-0.73,1.06-0.961c0.436-0.244,0.886-0.427,1.352-0.585c0.73-0.231,1.467-0.365,2.201-0.39
			c0.737-0.024,1.464,0.134,2.183,0.45c0.648,0.305,1.16,0.694,1.534,1.182c0.375,0.481,0.603,0.992,0.704,1.534
			c0.094,0.548,0.045,1.108-0.143,1.668c-0.186,0.573-0.536,1.109-1.035,1.608C134.931,163.189,135.399,163.677,135.674,164.249z
			 M138.554,170.253c-0.268,0.024-0.511-0.012-0.725-0.14c-0.21-0.128-0.38-0.311-0.511-0.566c-0.137-0.256-0.173-0.548-0.137-0.877
			c0.046-0.427,0.125-0.853,0.25-1.267c0.125-0.408,0.243-0.828,0.35-1.242c0.625-2.362,1.422-4.664,2.399-6.881
			c0.082-0.195,0.17-0.377,0.262-0.561c0.088-0.17,0.177-0.365,0.262-0.535c0.095-0.195,0.195-0.402,0.29-0.621
			c0.091-0.22,0.21-0.427,0.341-0.609c0.131-0.194,0.28-0.354,0.463-0.475c0.18-0.134,0.405-0.195,0.661-0.195
			c0.344,0,0.636,0.109,0.868,0.329c0.935,0.938,1.708,1.985,2.311,3.173c0.605,1.175,1.154,2.381,1.635,3.604
			c0.286-0.013,0.572-0.013,0.85,0c0.274,0.019,0.523,0.14,0.74,0.371c0.195,0.188,0.307,0.402,0.344,0.621
			c0.03,0.22,0.012,0.427-0.064,0.646c-0.073,0.207-0.198,0.384-0.371,0.536c-0.177,0.152-0.381,0.256-0.63,0.316
			c0.137,0.476,0.256,0.975,0.359,1.474c0.106,0.5,0.195,1.005,0.262,1.517v0.14c-0.037,0.305-0.143,0.566-0.311,0.779
			c-0.162,0.207-0.356,0.359-0.566,0.438c-0.219,0.085-0.444,0.098-0.682,0.036c-0.24-0.061-0.466-0.23-0.673-0.486
			c-0.179-0.22-0.28-0.463-0.298-0.73c-0.019-0.269-0.064-0.536-0.119-0.805c-0.137-0.748-0.338-1.527-0.6-2.338
			c-0.853,0.024-1.702,0.03-2.542,0.03c-0.844,0-1.684,0.007-2.521,0.019c-0.122,0.365-0.229,0.719-0.317,1.096
			c-0.094,0.378-0.173,0.737-0.262,1.097c-0.07,0.28-0.131,0.56-0.186,0.864c-0.058,0.299-0.183,0.555-0.375,0.768
			C139.078,170.058,138.828,170.217,138.554,170.253z M139.708,189.896c0.067-0.554,0.131-1.12,0.186-1.681
			c0.112-1.224,0.225-2.447,0.344-3.653c0.119-1.212,0.231-2.448,0.341-3.678c0.027-0.365,0.1-0.694,0.219-0.999
			c0.112-0.305,0.368-0.512,0.755-0.645c0.149-0.056,0.311-0.074,0.475-0.062c0.161,0.019,0.316,0.062,0.454,0.146
			c0.305,0.188,0.542,0.45,0.712,0.791c0.173,0.341,0.335,0.658,0.484,0.962c0.262,0.494,0.518,0.993,0.761,1.498
			c0.25,0.5,0.5,0.999,0.749,1.498c0.298,0.634,0.612,1.255,0.922,1.869c0.311,0.615,0.63,1.225,0.959,1.852
			c0.088-0.207,0.165-0.408,0.238-0.627c0.076-0.207,0.155-0.408,0.244-0.621c0.149-0.365,0.292-0.719,0.423-1.084
			s0.262-0.725,0.408-1.084c0.192-0.469,0.371-0.926,0.548-1.389c0.174-0.45,0.341-0.913,0.505-1.388
			c0.143-0.348,0.274-0.719,0.393-1.12c0.125-0.402,0.322-0.737,0.597-1.012c0.194-0.207,0.405-0.328,0.63-0.377
			c0.231-0.037,0.444-0.024,0.643,0.061c0.201,0.073,0.381,0.195,0.536,0.378s0.273,0.39,0.344,0.621
			c0.079,0.322,0.18,0.676,0.286,1.083c0.113,0.391,0.207,0.756,0.286,1.072c0.149,0.578,0.286,1.157,0.411,1.705
			c0.125,0.561,0.244,1.12,0.356,1.699c0.194,0.943,0.362,1.894,0.505,2.825c0.144,0.919,0.269,1.869,0.381,2.819v0.146
			c-0.036,0.305-0.149,0.561-0.332,0.768c-0.18,0.213-0.387,0.365-0.621,0.444c-0.237,0.079-0.475,0.092-0.725,0.012
			c-0.249-0.078-0.453-0.262-0.624-0.547c-0.137-0.238-0.216-0.481-0.237-0.737c-0.019-0.256-0.043-0.518-0.073-0.792
			c-0.024-0.305-0.058-0.572-0.095-0.797c-0.03-0.226-0.066-0.494-0.112-0.798c-0.125-0.828-0.262-1.645-0.411-2.448
			c-0.148-0.804-0.322-1.619-0.512-2.436c-0.273,0.682-0.535,1.376-0.785,2.046s-0.499,1.358-0.749,2.046
			c-0.191,0.512-0.38,1.023-0.566,1.535c-0.186,0.523-0.405,1.022-0.654,1.497c-0.082,0.165-0.226,0.305-0.411,0.408
			c-0.195,0.104-0.398,0.165-0.624,0.177c-0.219,0.012-0.423-0.024-0.618-0.098c-0.191-0.073-0.335-0.195-0.436-0.377
			c-0.593-1.146-1.178-2.277-1.76-3.41c-0.578-1.133-1.153-2.266-1.732-3.41c-0.07,0.694-0.131,1.4-0.186,2.119
			c-0.058,0.706-0.119,1.412-0.188,2.119c-0.012,0.219-0.024,0.486-0.037,0.804c-0.012,0.316-0.037,0.646-0.076,0.962
			c-0.03,0.322-0.073,0.633-0.125,0.926c-0.043,0.305-0.125,0.523-0.238,0.693c-0.162,0.274-0.377,0.451-0.648,0.536
			c-0.268,0.085-0.536,0.085-0.786,0.019c-0.256-0.066-0.466-0.201-0.643-0.42c-0.173-0.207-0.246-0.487-0.234-0.816
			C139.589,191.005,139.632,190.438,139.708,189.896z M153.549,170.174c-0.484,0-0.923-0.019-1.322-0.042l-0.143-0.025
			c-0.594-0.072-0.953-0.262-1.084-0.584c-0.131-0.329-0.137-0.682-0.012-1.072v-8.391c-0.226,0-0.421-0.061-0.594-0.17
			c-0.168-0.116-0.305-0.269-0.411-0.445c-0.106-0.176-0.155-0.371-0.155-0.59c0-0.22,0.061-0.408,0.186-0.598
			c0.274-0.401,0.63-0.73,1.06-0.961c0.438-0.244,0.886-0.427,1.354-0.585c0.728-0.231,1.465-0.365,2.201-0.39
			c0.731-0.024,1.462,0.134,2.181,0.45c0.646,0.305,1.156,0.694,1.534,1.182c0.371,0.481,0.603,0.992,0.706,1.534
			c0.092,0.548,0.043,1.108-0.146,1.668c-0.195,0.573-0.536,1.109-1.029,1.608c0.651,0.414,1.108,0.907,1.382,1.474
			c0.274,0.572,0.39,1.169,0.348,1.766c-0.049,0.609-0.244,1.193-0.585,1.76c-0.335,0.566-0.792,1.053-1.37,1.467
			c-0.341,0.244-0.749,0.433-1.206,0.561c-0.462,0.135-0.938,0.231-1.428,0.28C154.522,170.144,154.029,170.174,153.549,170.174z
			 M148.866,90.031c13.46,0,24.415,10.958,24.415,24.418c0,13.463-10.954,24.417-24.415,24.417
			c-13.46,0-24.417-10.954-24.417-24.417C124.448,100.989,135.406,90.031,148.866,90.031z M115.397,180.507
			c0-0.353,0.104-0.67,0.316-0.926c0.219-0.255,0.463-0.438,0.737-0.547c0.274-0.104,0.554-0.11,0.834-0.025
			c0.28,0.098,0.494,0.317,0.63,0.658c0.042,0.104,0.07,0.207,0.088,0.305c0.012,0.085,0.019,0.183,0.019,0.298v4.671h4.819v-4.428
			c0-0.273,0.061-0.535,0.186-0.785c0.158-0.305,0.369-0.512,0.648-0.633c0.29-0.128,0.558-0.158,0.832-0.109
			c0.268,0.061,0.505,0.182,0.703,0.401c0.201,0.22,0.298,0.512,0.298,0.883v4.756c0.332,0.098,0.582,0.268,0.743,0.523
			c0.167,0.256,0.25,0.524,0.237,0.804c-0.006,0.268-0.095,0.523-0.256,0.768c-0.167,0.243-0.405,0.396-0.725,0.463v3.599
			c0,0.347-0.085,0.651-0.262,0.919c-0.174,0.269-0.377,0.463-0.627,0.572c-0.25,0.116-0.511,0.135-0.785,0.073
			c-0.277-0.061-0.524-0.243-0.743-0.548c-0.1-0.134-0.161-0.292-0.201-0.475c-0.031-0.171-0.049-0.342-0.049-0.493v-3.575h-4.819
			v3.52c0,0.146-0.013,0.305-0.037,0.463c-0.028,0.158-0.076,0.299-0.146,0.427c-0.179,0.329-0.405,0.536-0.679,0.634
			c-0.274,0.097-0.542,0.091-0.804-0.013c-0.262-0.109-0.487-0.28-0.667-0.536c-0.188-0.256-0.28-0.572-0.28-0.943v-10.699H115.397z
			 M104.583,190.822l-0.143-0.207c-0.098-0.262-0.131-0.523-0.091-0.786c0.03-0.262,0.125-0.48,0.268-0.663
			c0.143-0.183,0.334-0.323,0.566-0.39c0.238-0.086,0.5-0.061,0.786,0.066c0.262,0.116,0.487,0.274,0.673,0.487
			c0.188,0.214,0.405,0.384,0.667,0.506c0.362,0.183,0.725,0.311,1.099,0.39c0.262,0.073,0.524,0.109,0.786,0.134
			c0.262,0.019,0.53,0.03,0.804,0.03c0.207-0.055,0.381-0.115,0.536-0.164s0.319-0.171,0.499-0.354
			c0.207-0.17,0.344-0.39,0.405-0.633c0.064-0.256,0.064-0.5,0-0.743c-0.061-0.231-0.179-0.45-0.356-0.651
			c-0.167-0.201-0.38-0.335-0.627-0.408c-0.481-0.164-0.968-0.292-1.449-0.377c-0.484-0.092-0.947-0.195-1.406-0.323
			c-0.457-0.116-0.886-0.298-1.291-0.523c-0.414-0.231-0.786-0.554-1.129-0.986c-0.195-0.231-0.32-0.433-0.375-0.615
			s-0.119-0.408-0.186-0.683c-0.125-0.657-0.076-1.217,0.155-1.668c0.225-0.457,0.511-0.877,0.852-1.242
			c0.445-0.48,0.944-0.853,1.504-1.108c0.554-0.255,1.142-0.42,1.756-0.499c0.612-0.073,1.236-0.061,1.86,0.049
			s1.221,0.273,1.791,0.523c0.329,0.134,0.536,0.354,0.627,0.646c0.088,0.292,0.094,0.572,0.015,0.853
			c-0.082,0.268-0.244,0.499-0.475,0.682c-0.237,0.171-0.505,0.231-0.822,0.177c-0.332-0.067-0.643-0.14-0.932-0.213
			c-0.286-0.079-0.579-0.146-0.865-0.194c-0.225-0.037-0.463-0.056-0.712-0.025c-0.256,0.025-0.5,0.073-0.722,0.135
			c-0.231,0.061-0.438,0.134-0.63,0.207c-0.194,0.072-0.338,0.158-0.438,0.23c-0.11,0.104-0.216,0.22-0.317,0.378
			s-0.161,0.323-0.173,0.518c-0.034,0.231,0.061,0.421,0.268,0.579c0.204,0.158,0.423,0.262,0.66,0.328
			c0.454,0.104,0.923,0.189,1.41,0.28c0.478,0.098,0.953,0.22,1.428,0.378c0.472,0.158,0.91,0.365,1.309,0.608
			c0.405,0.256,0.755,0.585,1.042,0.993c0.316,0.359,0.542,0.767,0.679,1.224c0.137,0.45,0.186,0.913,0.155,1.364
			c-0.03,0.45-0.143,0.889-0.316,1.309c-0.183,0.42-0.433,0.792-0.749,1.114c-0.219,0.22-0.448,0.402-0.691,0.561
			s-0.499,0.322-0.773,0.463c-0.551,0.292-1.142,0.438-1.778,0.438s-1.272-0.098-1.903-0.28c-0.636-0.183-1.233-0.45-1.802-0.786
			C105.468,191.589,104.981,191.218,104.583,190.822z M190.306,210.795h-82.879v-4.153h82.879V210.795z M193.234,186.785
			c-0.237,0.773-0.536,1.528-0.895,2.265c-0.372,0.737-0.811,1.395-1.334,1.967c-0.523,0.585-1.139,1.048-1.827,1.413
			c-0.7,0.359-1.491,0.536-2.393,0.536c-0.578-0.024-1.041-0.086-1.376-0.146c-0.335-0.085-0.658-0.195-0.98-0.347
			c-0.566-0.165-1.054-0.433-1.455-0.798c-0.408-0.365-0.749-0.785-1.023-1.272c-0.273-0.481-0.487-0.993-0.633-1.534
			c-0.141-0.549-0.238-1.072-0.28-1.584c-0.067-0.895,0.006-1.809,0.231-2.734c0.219-0.919,0.572-1.777,1.053-2.545
			c0.487-0.779,1.091-1.449,1.821-2.01c0.73-0.554,1.559-0.925,2.503-1.107c0.486-0.086,0.974-0.109,1.461-0.086
			c0.499,0.037,0.98,0.129,1.449,0.293c0.384,0.134,0.749,0.292,1.071,0.475c0.329,0.177,0.652,0.408,0.956,0.682
			c0.396,0.365,0.737,0.773,1.011,1.23c0.274,0.475,0.481,0.962,0.597,1.474c0.159,0.646,0.226,1.291,0.207,1.924
			C193.387,185.519,193.332,186.158,193.234,186.785z"/>
		<path d="M148.866,132.631c10.026,0,18.179-8.159,18.179-18.182c0-10.02-8.153-18.183-18.179-18.183s-18.182,8.163-18.182,18.183
			C130.684,124.472,138.84,132.631,148.866,132.631z M147.669,99.573c7.444,0,13.505,6.059,13.505,13.506
			c0,0.858-0.7,1.559-1.559,1.559c-0.864,0-1.559-0.7-1.559-1.559c0-5.73-4.664-10.388-10.388-10.388
			c-0.862,0-1.559-0.701-1.559-1.559C146.11,100.271,146.808,99.573,147.669,99.573z"/>
	</g>
</g>
<g>
</g>
<g>
</g>
<g>
</g>
<g>
</g>
<g>
</g>
<g>
</g>
<g>
</g>
<g>
</g>
<g>
</g>
<g>
</g>
<g>
</g>
<g>
</g>
<g>
</g>
<g>
</g>
<g>
</g>
</svg>
