<?xml version="1.0" encoding="iso-8859-1"?>
<!-- Generator: Adobe Illustrator 19.0.0, SVG Export Plug-In . SVG Version: 6.00 Build 0)  -->
<svg version="1.1" id="Layer_1" xmlns="http://www.w3.org/2000/svg" xmlns:xlink="http://www.w3.org/1999/xlink" x="0px" y="0px"
	 viewBox="0 0 418.153 418.153" style="enable-background:new 0 0 418.153 418.153;" xml:space="preserve">
<g>
	<path d="M259.441,207.77C338.94,173.232,322.97,0,322.97,0L221.607,175.566C238.831,179.473,252.926,191.689,259.441,207.77z"/>
	<circle cx="209.75" cy="227.829" r="37.6"/>
	<path d="M159.867,208.259c6.279-15.948,19.981-28.185,36.838-32.417L95.183,0C95.183,0,79.059,174.905,159.867,208.259z"/>
	<path d="M365.664,344.313c-13.592-23.542-43.696-31.608-67.238-18.017c-0.662,0.382-1.307,0.782-1.945,1.189l-41.217-71.391
		c-8.512,13.656-22.987,23.223-39.759,25.022c22.521,39.009,64.06,110.955,64.905,112.418
		c13.592,23.542,43.696,31.609,67.238,18.016C371.19,397.958,379.256,367.855,365.664,344.313z M338.952,375.516
		c-1.394,3.421-3.92,6.31-7.095,8.199c-2.72,1.618-5.674,2.438-8.773,2.438h-0.001c-6.159,0-11.892-3.303-14.961-8.618
		c-0.019-0.033-0.059-0.103-0.12-0.208c-4.537-7.86-2.087-17.899,5.562-22.783l0.138-0.088c0.233-0.149,0.468-0.299,0.71-0.438
		c2.676-1.545,5.557-2.324,8.579-2.324c6.157,0,11.89,3.303,14.959,8.619C340.623,364.94,341.015,370.454,338.952,375.516z"/>
	<path d="M163.548,254.953l-41.876,72.532c-0.638-0.407-1.283-0.807-1.945-1.189c-23.542-13.592-53.646-5.526-67.238,18.017
		c-13.592,23.542-5.526,53.646,18.017,67.238c23.542,13.592,53.646,5.526,67.238-18.016c0.846-1.466,42.497-73.607,64.997-112.578
		C186.045,278.764,171.748,268.866,163.548,254.953z M110.15,377.328c-0.057,0.099-0.095,0.166-0.114,0.198
		c-3.074,5.325-8.807,8.627-14.965,8.627c-3.101,0-6.054-0.82-8.773-2.437c-3.175-1.888-5.701-4.776-7.096-8.197
		c-2.064-5.063-1.672-10.578,1-15.207c3.069-5.316,8.802-8.619,14.96-8.619c3.021,0,5.903,0.779,8.565,2.316
		c0.243,0.141,0.483,0.293,0.723,0.446l0.138,0.088C112.238,359.428,114.688,369.469,110.15,377.328z"/>
</g>
<g>
</g>
<g>
</g>
<g>
</g>
<g>
</g>
<g>
</g>
<g>
</g>
<g>
</g>
<g>
</g>
<g>
</g>
<g>
</g>
<g>
</g>
<g>
</g>
<g>
</g>
<g>
</g>
<g>
</g>
</svg>
